<svg xmlns="http://www.w3.org/2000/svg" width="200" height="201" fill="none" viewBox="0 0 200 201"><path fill="#fff" d="M0 .064h200v200.001H0z"/><path fill="#000" d="M16 36.34v20.276h40.552V16.065H16V36.34Zm34.759 0v14.483H21.793V21.858H50.76V36.34Z"/><path fill="#000" d="M27.585 36.342v8.69h17.38v-17.38h-17.38v8.69Z"/><path fill="#000" d="M85.517 18.963v2.897h-5.793v5.793H68.138V21.86h-5.793v17.38h5.793v-5.794h5.792v11.586h5.794V39.24h17.38v5.792H85.516v23.173h23.174V62.41h11.586v5.794h-5.793v5.794H73.931v5.792h5.793v5.794H91.31V79.79h5.794v5.794h17.378v5.793h-5.792v5.793h-5.793v-5.793H91.31v17.379h-5.793v-5.793H73.931V97.17h11.586v-5.793H73.931v-5.793H62.345v5.793H73.93v5.793H50.759v5.793h-5.794v5.793H33.38v-5.793h-5.794V97.17h5.794v-5.793h11.587v-5.793H33.379v5.793h-5.793v-17.38h-5.793v-5.792H33.38V62.41H21.793v5.794H16V79.79h5.793v5.794H16V97.17h5.793v11.586H33.38v11.586h11.587v-5.793h11.586v5.793h-5.794v5.794h-17.38v5.793h-5.793v-5.793h-5.793v-5.794H16v5.794h5.793v5.793H16v5.793h23.172v-5.793H50.76v5.793h11.586v-5.793h5.792v-5.793h-5.793v-17.38h5.793v-5.793h5.792v5.793h11.586v17.38h5.794v5.793h-5.793v11.586h5.793v5.793H79.724v-5.793h-5.793v-5.793h-5.793v28.965h-5.793v11.586h5.793v5.793h5.792v-5.793h5.794v5.793h23.173v-5.793h11.586v-5.793h-17.38v-5.793h23.173v5.793h17.379v-5.793h5.793v5.793h5.793v5.793h5.793v5.793h5.794v-5.793h5.793v5.793h5.793v-5.793H184v-5.793h-11.586v-5.793h-11.586v-5.793h5.793v-5.793h5.793v5.793h5.793v5.793H184v-5.793h-5.793v-5.793H184v-5.793h-5.793v5.793h-5.793v-5.793h-5.793v5.793h-5.793v-23.172h5.793v5.793H184v-17.38h-34.759v-5.793h5.793v-5.793h-11.586v11.586h-5.793v-11.586h-5.793v5.793h-5.793v-11.586h-5.793v5.793H108.69V97.17h5.793v-5.793h5.793v5.793h23.172v5.793h5.793V97.17h5.793v5.793h5.794V97.17h5.793v11.586h-5.793v5.793h17.379v-5.793H184V97.17h-5.793v-5.793h-11.586v-5.793h5.793V79.79h5.793v5.794H184v-17.38h-5.793v-5.792h-17.379v5.794h-5.794V62.41h-5.793v11.587h-5.793v11.586h-5.793V73.998h-5.793v5.792h-11.586v-5.792h5.793V50.825h-5.793v5.793h-5.793V45.032h-5.793V39.24h5.793V21.86h-5.793v-5.792H97.103v5.792H91.31v-5.793h-5.793v2.896Zm5.793 5.793v2.897h5.794V21.86h5.793v5.793h-5.794v5.793H79.725v-5.793h5.792V21.86h5.793v2.896Zm17.38 11.587v2.896h-5.793v-5.793h5.793v2.897Zm0 14.482v5.793h-5.793V45.032h5.793v5.793Zm-11.587 2.897v2.896H91.31v-5.793h5.794v2.897Zm69.518 17.38v2.896h5.793v5.792h-5.793v-5.792h-5.793v5.792h-11.587v-5.792h11.587v-5.793h5.793V71.1ZM137.655 88.48v2.897h-17.379v-5.793h17.379v2.896Zm23.173 0v2.897h-5.794v-5.793h5.794v2.896ZM27.586 94.273v2.897h-5.793v-5.793h5.793v2.897Zm121.655 0v2.897h-5.793v-5.793h5.793v2.897Zm-46.344 11.587v8.689h-5.794v11.587H91.31v-11.587h5.794V97.17h5.793v8.69Zm-46.345 0v2.896h-5.793v-5.793h5.793v2.897Zm121.655 0v2.896h-5.793v-5.793h5.793v2.897Zm-46.345 17.379v2.897h5.793v5.793h-23.172v5.793h-5.793v5.793h11.586v-5.793h5.793v5.793h-5.793v5.793h5.793v5.793h-5.793v5.793h17.379v5.793h-17.379v-5.793h-5.793v-5.793h-11.586v-11.586H91.31v-11.586h5.794v5.793h5.793v-5.793h5.793v-5.793h5.793v-5.794h17.379v2.897Zm17.379 0v2.897h11.587v5.793h-11.587v-5.793h-5.793v-5.794h5.793v2.897Zm-86.896 5.793v2.897H50.759v-5.793h11.586v2.896Zm110.069 0v2.897h-5.793v-5.793h5.793v2.896Zm-17.38 17.379v8.69h-17.379v-17.379h17.379v8.689Zm-75.31 5.793v2.897h17.38v5.793H85.516v17.379h-5.792v-5.793h-5.793v5.793h-5.793v-11.586h11.586v-11.586h-5.793v-5.793h5.793v2.896Zm75.31 14.483v5.793h5.794v5.793h-5.794v-5.793h-5.793v-5.793h-5.793v-5.793h11.586v5.793Zm17.38 8.69v2.896h-5.793v-5.793h5.793v2.897Z"/><path fill="#000" d="M114.482 152.205v2.897h5.794v-5.794h-5.794v2.897Zm28.965-5.794v2.897h5.793v-5.793h-5.793v2.896ZM120.274 18.966v2.896h5.794V16.07h-5.794v2.897Zm23.173 17.374v20.276h40.552V16.065h-40.552V36.34Zm34.759 0v14.483H149.24V21.858h28.966V36.34Z"/><path fill="#000" d="M155.035 36.342v8.69h17.379v-17.38h-17.379v8.69Zm-23.174-11.587v2.897h-5.793v5.793h-5.794v5.793h11.587v5.793h5.793v-5.793h-5.793V27.652h5.793v-5.793h-5.793v2.896ZM62.345 50.827v5.793h5.793v11.586h5.793V56.62h5.794v-5.793H73.93v5.793h-5.792V45.034h-5.793v5.793Zm69.517 2.893v2.896h5.793v-5.793h-5.793v2.897ZM50.76 65.308v2.897H39.172v5.793h11.586v5.792h11.586v-5.792H50.76v-5.793h5.792v-5.793H50.76v2.896Zm86.895.002v2.896h5.793v-5.793h-5.793v2.897ZM50.758 88.48v2.896h5.793v-5.793h-5.793v2.896Zm23.172 31.863v5.793h5.793V114.55H73.93v5.793ZM16 163.791v20.275h40.552v-40.551H16v20.276Zm34.759 0v14.482H21.793v-28.965H50.76v14.483Z"/><path fill="#000" d="M27.585 163.792v8.689h17.38v-17.379h-17.38v8.69Zm98.485 17.378v2.896h5.793v-5.793h-5.793v2.897Zm11.585 0v2.896h5.793v-5.793h-5.793v2.897Z"/></svg>