<svg xmlns="http://www.w3.org/2000/svg" width="200" height="201" fill="none" viewBox="0 0 200 201"><path fill="#fff" d="M0 .064h200v200H0z"/><path fill="#000" d="M32 48.478v16.414h32.828V32.064H32v16.414Zm28.138 0v11.724H36.69V36.754h23.448v11.724Z"/><path fill="#000" d="M41.379 48.478v7.035h14.069V41.444H41.379v7.034Z"/><path fill="#000" d="M88.276 34.41v2.344h-4.69v4.69h-9.38v-4.69h-4.689v14.069h4.69v-4.689h4.69v9.379h4.689v-4.69h14.069v4.69h-9.38v18.759h18.759v-4.69h9.38v4.69h-4.69v4.689H78.897v4.69h4.689v4.69h9.38v-4.69h4.689v4.69h14.069v4.689h-4.69v4.69h-4.689v-4.69h-9.38v14.07h-4.689v-4.69h-9.38v-4.69h9.38v-4.69h-9.38v-4.689h-9.378v4.689h9.38v4.69h-18.76v4.689h-4.689v4.69H46.07v-4.69h-4.69V97.72h4.69v-4.69h9.38v-4.689h-9.38v4.689h-4.69V78.961h-4.69v-4.689h9.379v-4.69h-9.38v4.69H32v9.378h4.69v4.69H32v9.38h4.69v9.379h9.379v9.379h9.38v-4.689h9.378v4.689h-4.69v4.69H46.069v4.69h-4.69v-4.69H36.69v-4.69H32v4.69h4.69v4.69H32v4.689h18.759v-4.689h9.379v4.689h9.38v-4.689h4.689v-4.69h-4.69v-14.069h4.69v-4.69h4.69v4.69h9.379v14.069h4.69v4.69h-4.69v9.379h4.69v4.69h-9.38v-4.69h-4.689v-4.69h-4.69v23.449h-4.69v9.379h4.69v4.689h4.69v-4.689h4.689v4.689h18.759v-4.689h9.379v-4.69H97.655v-4.689h18.759v4.689h14.069v-4.689h4.689v4.689h4.69v4.69h4.69v4.689h4.689v-4.689h4.69v4.689h4.69v-4.689H168v-4.69h-9.379v-4.689h-9.38v-4.69h4.69v-4.69h4.69v4.69h4.689v4.69H168v-4.69h-4.69v-4.69H168v-4.689h-4.69v4.689h-4.689v-4.689h-4.69v4.689h-4.69v-18.758h4.69v4.689H168v-14.069h-28.138v-4.689h4.69v-4.69h-9.38v9.379h-4.689v-9.379h-4.69v4.69h-4.69v-9.38h-4.689v4.69h-9.38v-9.38h4.69V93.03h4.69v4.69h18.758v4.689h4.69V97.72h4.69v4.689h4.689V97.72h4.69v9.379h-4.69v4.69h14.069v-4.69H168v-9.38h-4.69V93.03h-9.379v-4.689h4.69v-4.69h4.689v4.69H168V74.272h-4.69v-4.69h-14.069v4.69h-4.689v-4.69h-4.69v9.38h-4.69v9.378h-4.689v-9.38h-4.69v4.69h-9.379v-4.69h4.689V60.203h-4.689v4.689h-4.69v-9.379h-4.69v-4.69h4.69V36.754h-4.69v-4.689h-9.379v4.689h-4.689v-4.689h-4.69v2.345Zm4.69 4.69v2.344h4.689v-4.69h4.69v4.69h-4.69v4.69H83.586v-4.69h4.69v-4.69h4.69V39.1Zm14.068 9.378v2.345h-4.689v-4.689h4.689v2.344Zm0 11.725v4.69h-4.689v-9.38h4.689v4.69Zm-9.379 2.344v2.345h-4.689v-4.689h4.689v2.344Zm56.276 14.07v2.344h4.69v4.69h-4.69v-4.69h-4.69v4.69h-9.379v-4.69h9.379v-4.689h4.69v2.344Zm-23.448 14.068v2.345h-14.069v-4.689h14.069v2.344Zm18.758 0v2.345h-4.689v-4.689h4.689v2.344Zm-107.862 4.69v2.345H36.69v-4.69h4.689v2.345Zm98.483 0v2.345h-4.69v-4.69h4.69v2.345Zm-37.517 9.379v7.035h-4.69v9.379h-4.689v-9.379h4.689V97.72h4.69v7.034Zm-37.517 0v2.345h-4.69v-4.69h4.69v2.345Zm98.482 0v2.345h-4.689v-4.69h4.689v2.345Zm-37.517 14.069v2.345h4.69v4.69h-18.759v4.689h-4.69v4.69h9.38v-4.69h4.689v4.69h-4.689v4.69h4.689v4.689h-4.689v4.69h14.069v4.69h-14.069v-4.69h-4.69v-4.69h-9.379v-9.379h-9.38v-9.379h4.69v4.689h4.69v-4.689h4.689v-4.69h4.69v-4.69h14.069v2.345Zm14.069 0v2.345h9.379v4.69h-9.379v-4.69h-4.69v-4.69h4.69v2.345Zm-70.345 4.69v2.345h-9.38v-4.69h9.38v2.345Zm89.104 0v2.345h-4.69v-4.69h4.69v2.345Zm-14.069 14.069v7.034h-14.069v-14.069h14.069v7.035Zm-60.966 4.689v2.345h14.069v4.69h-9.38v14.069h-4.689v-4.69h-4.689v4.69h-4.69v-9.379h9.38v-9.38h-4.691v-4.689h4.689v2.344Zm60.966 11.725v4.689h4.689v4.69h-4.689v-4.69h-4.69v-4.689h-4.69v-4.69h9.38v4.69Zm14.069 7.034v2.345h-4.69v-4.69h4.69v2.345Z"/><path fill="#000" d="M111.724 142.271v2.345h4.69v-4.689h-4.69v2.344Zm23.448-4.689v2.345h4.69v-4.69h-4.69v2.345ZM116.413 34.41v2.345h4.69v-4.69h-4.69v2.345Zm18.759 14.068v16.414h32.827V32.064h-32.827v16.414Zm28.138 0v11.724h-23.448V36.754h23.448v11.724Z"/><path fill="#000" d="M144.552 48.478v7.035h14.069V41.444h-14.069v7.034Zm-18.76-9.379v2.345h-4.689v4.689h-4.69v4.69h9.379v4.69h4.69v-4.69h-4.69v-9.38h4.69v-4.689h-4.69V39.1ZM69.517 60.203v4.69h4.69v9.38h4.689v-9.38h4.69v-4.69h-4.69v4.69h-4.689v-9.38h-4.69v4.69Zm56.276 2.344v2.345h4.69v-4.69h-4.69v2.345Zm-65.655 9.38v2.345h-9.38v4.69h9.38v4.689h9.38v-4.689h-9.38v-4.69h4.69v-4.69h-4.69v2.345Zm70.345.001v2.344h4.69v-4.689h-4.69v2.345ZM60.138 90.686v2.344h4.689v-4.689h-4.689v2.345Zm18.758 25.792v4.69h4.69v-9.379h-4.69v4.689ZM32 151.651v16.413h32.828v-32.827H32v16.414Zm28.138 0v11.724H36.69v-23.448h23.448v11.724Z"/><path fill="#000" d="M41.379 151.651v7.035h14.069v-14.069H41.379v7.034Zm79.725 14.069v2.344h4.69v-4.689h-4.69v2.345Zm9.379 0v2.344h4.69v-4.689h-4.69v2.345Z"/></svg>